<?xml version="1.0" encoding="UTF-8"?>
<!DOCTYPE svg PUBLIC "-//W3C//DTD SVG 1.1//EN" "http://www.w3.org/Graphics/SVG/1.1/DTD/svg11.dtd">
<svg xmlns="http://www.w3.org/2000/svg" version="1.1" width="1024px" height="1024px" style="shape-rendering:geometricPrecision; text-rendering:geometricPrecision; image-rendering:optimizeQuality; fill-rule:evenodd; clip-rule:evenodd" xmlns:xlink="http://www.w3.org/1999/xlink">
<g><path style="opacity:1" fill="#fefefe" d="M -0.5,-0.5 C 340.833,-0.5 682.167,-0.5 1023.5,-0.5C 1023.5,340.833 1023.5,682.167 1023.5,1023.5C 682.167,1023.5 340.833,1023.5 -0.5,1023.5C -0.5,682.167 -0.5,340.833 -0.5,-0.5 Z"/></g>
<g><path style="opacity:1" fill="#506797" d="M 422.5,327.5 C 416.833,327.5 411.167,327.5 405.5,327.5C 405.5,343.833 405.5,360.167 405.5,376.5C 404.503,360.008 404.17,343.342 404.5,326.5C 410.69,326.177 416.69,326.51 422.5,327.5 Z"/></g>
<g><path style="opacity:1" fill="#1d3d7a" d="M 422.5,327.5 C 423.833,328.5 425.167,329.5 426.5,330.5C 436.833,331.167 447.167,331.833 457.5,332.5C 453.196,335.657 448.863,338.824 444.5,342C 448.387,345.427 452.387,348.594 456.5,351.5C 445.679,352.495 434.679,352.828 423.5,352.5C 423.5,360.5 423.5,368.5 423.5,376.5C 417.5,376.5 411.5,376.5 405.5,376.5C 405.5,360.167 405.5,343.833 405.5,327.5C 411.167,327.5 416.833,327.5 422.5,327.5 Z"/></g>
<g><path style="opacity:1" fill="#546c9a" d="M 426.5,330.5 C 437.187,330.168 447.854,330.501 458.5,331.5C 458.376,332.107 458.043,332.44 457.5,332.5C 447.167,331.833 436.833,331.167 426.5,330.5 Z"/></g>
<g><path style="opacity:1" fill="#798cb0" d="M 456.5,351.5 C 457.376,351.369 458.043,351.702 458.5,352.5C 447.186,353.499 435.853,353.832 424.5,353.5C 424.825,361.352 424.492,369.018 423.5,376.5C 423.5,368.5 423.5,360.5 423.5,352.5C 434.679,352.828 445.679,352.495 456.5,351.5 Z"/></g>
<g><path style="opacity:1" fill="#20407c" d="M 382.5,383.5 C 461.167,383.333 539.834,383.5 618.5,384C 620.237,389.323 620.904,394.823 620.5,400.5C 540.167,400.5 459.833,400.5 379.5,400.5C 379.334,395.821 379.501,391.155 380,386.5C 381.045,385.627 381.878,384.627 382.5,383.5 Z"/></g>
<g><path style="opacity:1" fill="#20407d" d="M 676.5,406.5 C 676.5,408.167 676.5,409.833 676.5,411.5C 650.43,420.522 624.43,429.522 598.5,438.5C 551.827,453.058 505.494,468.391 459.5,484.5C 456.254,485.054 453.254,486.054 450.5,487.5C 437.83,490.724 425.496,494.724 413.5,499.5C 393.054,505.592 372.554,511.592 352,517.5C 351.026,514.827 351.86,512.327 354.5,510C 358.417,508.521 362.417,507.354 366.5,506.5C 372.166,505.61 377.5,503.943 382.5,501.5C 384.302,500.542 386.302,499.875 388.5,499.5C 394.166,498.61 399.5,496.943 404.5,494.5C 410.665,492.257 416.998,490.257 423.5,488.5C 436.17,485.276 448.504,481.276 460.5,476.5C 476.171,472.276 491.504,467.276 506.5,461.5C 511.215,459.262 516.215,457.595 521.5,456.5C 540.171,451.276 558.505,445.276 576.5,438.5C 581.952,436.126 587.619,434.126 593.5,432.5C 607.171,428.942 620.504,424.609 633.5,419.5C 642.696,417.659 651.362,414.659 659.5,410.5C 665.167,409.167 670.833,407.833 676.5,406.5 Z"/></g>
<g><path style="opacity:1" fill="#1e3e7b" d="M 605.5,418.5 C 589.61,423.463 573.944,428.796 558.5,434.5C 532.828,442.058 507.495,450.391 482.5,459.5C 459.828,466.058 437.495,473.391 415.5,481.5C 401.273,485.909 386.94,489.909 372.5,493.5C 372.191,470.658 371.524,447.825 370.5,425C 370.667,420.5 370.833,416 371,411.5C 371.465,410.069 372.299,408.903 373.5,408C 456.167,407.333 538.833,407.333 621.5,408C 623.394,409.079 623.727,410.413 622.5,412C 616.808,414.183 611.141,416.349 605.5,418.5 Z"/></g>
<g><path style="opacity:1" fill="#5d739f" d="M 676.5,406.5 C 670.833,407.833 665.167,409.167 659.5,410.5C 663.285,408.734 667.285,407.234 671.5,406C 673.387,405.22 675.054,405.387 676.5,406.5 Z"/></g>
<g><path style="opacity:1" fill="#435c90" d="M 659.5,410.5 C 651.362,414.659 642.696,417.659 633.5,419.5C 641.942,416.129 650.609,413.129 659.5,410.5 Z"/></g>
<g><path style="opacity:1" fill="#d3d9e5" d="M 605.5,418.5 C 605.389,419.117 605.056,419.617 604.5,420C 589.295,425.347 573.962,430.18 558.5,434.5C 573.944,428.796 589.61,423.463 605.5,418.5 Z"/></g>
<g><path style="opacity:1" fill="#fcfcfd" d="M 397.5,423.5 C 406.833,423.5 416.167,423.5 425.5,423.5C 425.5,432.833 425.5,442.167 425.5,451.5C 416.167,451.5 406.833,451.5 397.5,451.5C 397.5,442.167 397.5,432.833 397.5,423.5 Z"/></g>
<g><path style="opacity:1" fill="#fcfdfd" d="M 457.5,423.5 C 466.833,423.5 476.167,423.5 485.5,423.5C 485.5,432.833 485.5,442.167 485.5,451.5C 476.167,451.5 466.833,451.5 457.5,451.5C 457.5,442.167 457.5,432.833 457.5,423.5 Z"/></g>
<g><path style="opacity:1" fill="#556b9a" d="M 633.5,419.5 C 620.504,424.609 607.171,428.942 593.5,432.5C 606.496,427.391 619.829,423.058 633.5,419.5 Z"/></g>
<g><path style="opacity:1" fill="#1d3d7a" d="M 349.5,530.5 C 363.171,526.942 376.504,522.609 389.5,517.5C 398.169,515.609 406.502,512.943 414.5,509.5C 416.302,508.542 418.302,507.875 420.5,507.5C 426.166,506.61 431.5,504.943 436.5,502.5C 458.172,496.276 479.505,489.276 500.5,481.5C 520.172,475.942 539.505,469.609 558.5,462.5C 561.254,461.054 564.254,460.054 567.5,459.5C 579.17,456.609 590.503,452.943 601.5,448.5C 618.171,443.942 634.505,438.609 650.5,432.5C 657.167,431.276 663.501,429.276 669.5,426.5C 671.218,425.776 673.052,425.109 675,424.5C 666.844,476.637 650.844,526.303 627,573.5C 621.621,583.539 615.454,593.039 608.5,602C 595.5,602.333 582.5,602.667 569.5,603C 557.536,606.544 545.869,610.877 534.5,616C 511.851,622.471 490.517,619.471 470.5,607C 465.323,605.039 459.99,603.706 454.5,603C 433.3,599.573 413.3,602.906 394.5,613C 393.167,613.667 391.833,613.667 390.5,613C 368.071,591.475 353.737,565.475 347.5,535C 347.569,533.014 348.235,531.514 349.5,530.5 Z"/></g>
<g><path style="opacity:1" fill="#d2d8e4" d="M 676.5,411.5 C 676.423,412.75 675.756,413.583 674.5,414C 649.297,422.679 623.963,430.846 598.5,438.5C 624.43,429.522 650.43,420.522 676.5,411.5 Z"/></g>
<g><path style="opacity:1" fill="#516898" d="M 669.5,426.5 C 663.501,429.276 657.167,431.276 650.5,432.5C 656.499,429.724 662.833,427.724 669.5,426.5 Z"/></g>
<g><path style="opacity:1" fill="#4d6596" d="M 650.5,432.5 C 634.505,438.609 618.171,443.942 601.5,448.5C 617.495,442.391 633.829,437.058 650.5,432.5 Z"/></g>
<g><path style="opacity:1" fill="#8596b7" d="M 457.5,423.5 C 466.986,422.506 476.652,422.173 486.5,422.5C 486.5,432.5 486.5,442.5 486.5,452.5C 476.652,452.827 466.986,452.494 457.5,451.5C 466.833,451.5 476.167,451.5 485.5,451.5C 485.5,442.167 485.5,432.833 485.5,423.5C 476.167,423.5 466.833,423.5 457.5,423.5 Z"/></g>
<g><path style="opacity:1" fill="#d0d7e3" d="M 558.5,434.5 C 533.505,443.609 508.172,451.942 482.5,459.5C 507.495,450.391 532.828,442.058 558.5,434.5 Z"/></g>
<g><path style="opacity:1" fill="#526999" d="M 576.5,438.5 C 558.505,445.276 540.171,451.276 521.5,456.5C 539.495,449.724 557.829,443.724 576.5,438.5 Z"/></g>
<g><path style="opacity:1" fill="#546a99" d="M 601.5,448.5 C 590.503,452.943 579.17,456.609 567.5,459.5C 578.497,455.057 589.83,451.391 601.5,448.5 Z"/></g>
<g><path style="opacity:1" fill="#536999" d="M 506.5,461.5 C 491.504,467.276 476.171,472.276 460.5,476.5C 475.496,470.724 490.829,465.724 506.5,461.5 Z"/></g>
<g><path style="opacity:1" fill="#4d6596" d="M 558.5,462.5 C 539.505,469.609 520.172,475.942 500.5,481.5C 519.495,474.391 538.828,468.058 558.5,462.5 Z"/></g>
<g><path style="opacity:1" fill="#ced5e2" d="M 482.5,459.5 C 460.505,467.609 438.172,474.942 415.5,481.5C 437.495,473.391 459.828,466.058 482.5,459.5 Z"/></g>
<g><path style="opacity:1" fill="#c6cede" d="M 598.5,438.5 C 552.506,454.609 506.173,469.942 459.5,484.5C 505.494,468.391 551.827,453.058 598.5,438.5 Z"/></g>
<g><path style="opacity:1" fill="#fafbfc" d="M 589.5,476.5 C 604.825,474.843 613.825,481.51 616.5,496.5C 613.325,513.482 603.325,519.648 586.5,515C 574.992,507.132 572.492,496.965 579,484.5C 581.94,480.963 585.44,478.297 589.5,476.5 Z"/></g>
<g><path style="opacity:1" fill="#f7f8fa" d="M 538.5,481.5 C 542.839,480.846 546.673,481.846 550,484.5C 551.643,489.428 550.143,492.928 545.5,495C 551.8,495.134 555.466,498.301 556.5,504.5C 553.171,504.998 550.005,505.998 547,507.5C 545.878,504.924 544.878,502.257 544,499.5C 542.186,498.24 540.353,498.24 538.5,499.5C 539.976,502.415 540.81,505.415 541,508.5C 538.413,510.196 535.579,511.196 532.5,511.5C 530.682,503.542 528.348,495.709 525.5,488C 525.645,487.228 525.978,486.561 526.5,486C 530.715,484.766 534.715,483.266 538.5,481.5 Z"/></g>
<g><path style="opacity:1" fill="#4a6294" d="M 460.5,476.5 C 448.504,481.276 436.17,485.276 423.5,488.5C 435.496,483.724 447.83,479.724 460.5,476.5 Z"/></g>
<g><path style="opacity:1" fill="#f8f9fb" d="M 501.5,506.5 C 501.5,504.167 501.5,501.833 501.5,499.5C 505.014,491.812 511.014,488.978 519.5,491C 526.461,494.756 529.294,500.589 528,508.5C 523.936,516.61 517.436,519.443 508.5,517C 504.779,514.442 502.445,510.942 501.5,506.5 Z"/></g>
<g><path style="opacity:1" fill="#536a99" d="M 500.5,481.5 C 479.505,489.276 458.172,496.276 436.5,502.5C 457.495,494.724 478.828,487.724 500.5,481.5 Z"/></g>
<g><path style="opacity:1" fill="#354f87" d="M 539.5,492.5 C 540.978,492.238 542.311,492.571 543.5,493.5C 541.821,494.782 539.987,495.782 538,496.5C 537.5,496 537,495.5 536.5,495C 537.571,494.148 538.571,493.315 539.5,492.5 Z"/></g>
<g><path style="opacity:1" fill="#ccd3e1" d="M 450.5,487.5 C 438.504,492.276 426.17,496.276 413.5,499.5C 425.496,494.724 437.83,490.724 450.5,487.5 Z"/></g>
<g><path style="opacity:1" fill="#f4f6f9" d="M 499.5,505.5 C 499.5,506.167 499.5,506.833 499.5,507.5C 497.043,508.023 494.709,508.856 492.5,510C 494.356,514.212 496.356,518.379 498.5,522.5C 495.51,523.831 492.51,525.164 489.5,526.5C 487.988,521.941 486.988,517.274 486.5,512.5C 483.801,512.466 481.301,513.133 479,514.5C 477.119,510.693 475.953,506.693 475.5,502.5C 482.072,500.81 488.572,498.81 495,496.5C 495.772,496.645 496.439,496.978 497,497.5C 497.941,500.154 498.774,502.821 499.5,505.5 Z"/></g>
<g><path style="opacity:1" fill="#556b9a" d="M 404.5,494.5 C 399.5,496.943 394.166,498.61 388.5,499.5C 393.5,497.057 398.834,495.39 404.5,494.5 Z"/></g>
<g><path style="opacity:1" fill="#294580" d="M 513.5,501.5 C 515.199,501.34 516.866,501.506 518.5,502C 519.451,502.718 519.617,503.551 519,504.5C 516.435,506.179 513.602,506.846 510.5,506.5C 510.31,504.041 511.31,502.374 513.5,501.5 Z"/></g>
<g><path style="opacity:1" fill="#92a1bf" d="M 501.5,499.5 C 501.5,501.833 501.5,504.167 501.5,506.5C 500.833,506.833 500.167,507.167 499.5,507.5C 499.5,506.833 499.5,506.167 499.5,505.5C 500.167,503.5 500.833,501.5 501.5,499.5 Z"/></g>
<g><path style="opacity:1" fill="#f7f8fa" d="M 469.5,504.5 C 471.144,504.286 472.644,504.62 474,505.5C 476.806,513.416 479.306,521.416 481.5,529.5C 478.951,529.387 476.618,530.054 474.5,531.5C 469.873,528.209 465.54,524.542 461.5,520.5C 462.914,524.511 464.914,528.677 467.5,533C 463.979,534.674 460.313,535.84 456.5,536.5C 454.438,528.314 451.771,520.314 448.5,512.5C 450.871,511.209 453.371,510.209 456,509.5C 459.961,511.957 463.794,514.624 467.5,517.5C 467.833,517.333 468.167,517.167 468.5,517C 466.399,513.634 464.732,510.134 463.5,506.5C 465.786,506.405 467.786,505.738 469.5,504.5 Z"/></g>
<g><path style="opacity:1" fill="#556b9a" d="M 382.5,501.5 C 377.5,503.943 372.166,505.61 366.5,506.5C 371.5,504.057 376.834,502.39 382.5,501.5 Z"/></g>
<g><path style="opacity:1" fill="#556b9a" d="M 436.5,502.5 C 431.5,504.943 426.166,506.61 420.5,507.5C 425.5,505.057 430.834,503.39 436.5,502.5 Z"/></g>
<g><path style="opacity:1" fill="#506797" d="M 414.5,509.5 C 406.502,512.943 398.169,515.609 389.5,517.5C 397.498,514.057 405.831,511.391 414.5,509.5 Z"/></g>
<g><path style="opacity:1" fill="#f7f8fa" d="M 447.5,523.5 C 444.077,524.363 440.744,525.53 437.5,527C 440.794,526.635 444.127,526.135 447.5,525.5C 447.5,526.5 447.5,527.5 447.5,528.5C 449.239,527.566 450.905,527.566 452.5,528.5C 454.103,531.344 454.603,534.344 454,537.5C 447.26,540.136 440.427,542.469 433.5,544.5C 431.438,536.314 428.771,528.314 425.5,520.5C 431.575,517.585 437.908,515.252 444.5,513.5C 445.442,513.608 446.275,513.941 447,514.5C 447.833,517 448.667,519.5 449.5,522C 449.164,523.03 448.497,523.53 447.5,523.5 Z"/></g>
<g><path style="opacity:1" fill="#f6f7fa" d="M 419.5,539.5 C 419.313,537.436 418.813,535.436 418,533.5C 417.199,536.367 417.366,539.034 418.5,541.5C 418.923,544.288 417.923,546.288 415.5,547.5C 412.768,544.384 410.268,541.051 408,537.5C 409.751,541.692 411.584,546.025 413.5,550.5C 410.138,552.621 406.471,553.955 402.5,554.5C 400.832,545.831 399.166,537.164 397.5,528.5C 400.789,527.452 404.122,526.952 407.5,527C 409.461,530.421 411.294,533.921 413,537.5C 413.671,533.364 413.171,529.364 411.5,525.5C 414.064,523.414 417.064,522.08 420.5,521.5C 421.167,521.833 421.833,522.167 422.5,522.5C 425.74,530.059 429.074,537.559 432.5,545C 429.129,546.068 425.796,547.235 422.5,548.5C 420.506,545.85 419.506,542.85 419.5,539.5 Z"/></g>
<g><path style="opacity:1" fill="#536a99" d="M 389.5,517.5 C 376.504,522.609 363.171,526.942 349.5,530.5C 362.496,525.391 375.829,521.058 389.5,517.5 Z"/></g>
<g><path style="opacity:1" fill="#6378a3" d="M 447.5,523.5 C 447.5,524.167 447.5,524.833 447.5,525.5C 444.127,526.135 440.794,526.635 437.5,527C 440.744,525.53 444.077,524.363 447.5,523.5 Z"/></g>
<g><path style="opacity:1" fill="#576c9b" d="M 447.5,528.5 C 444.858,530.48 441.858,531.314 438.5,531C 441.312,529.451 444.312,528.618 447.5,528.5 Z"/></g>
<g><path style="opacity:1" fill="#7d8fb2" d="M 419.5,539.5 C 418.662,539.842 418.328,540.508 418.5,541.5C 417.366,539.034 417.199,536.367 418,533.5C 418.813,535.436 419.313,537.436 419.5,539.5 Z"/></g>
<g><path style="opacity:1" fill="#4e6596" d="M 424.5,617.5 C 433.991,616.342 443.658,616.175 453.5,617C 456.191,617.156 458.524,617.989 460.5,619.5C 448.563,617.979 436.563,617.312 424.5,617.5 Z"/></g>
<g><path style="opacity:1" fill="#203f7c" d="M 599.5,638.5 C 595.849,637.835 592.015,637.501 588,637.5C 582.568,637.281 577.401,637.948 572.5,639.5C 561.738,642.034 551.404,645.867 541.5,651C 536.571,652.81 531.571,654.31 526.5,655.5C 518.534,656.365 510.534,656.698 502.5,656.5C 497.832,655.399 493.165,654.232 488.5,653C 480.222,649.184 471.889,645.684 463.5,642.5C 461.152,640.903 458.486,639.903 455.5,639.5C 445.201,638.406 434.867,638.24 424.5,639C 410.945,643.407 397.612,648.407 384.5,654C 358.515,661.295 335.682,655.795 316,637.5C 309.954,628.389 311.954,621.723 322,617.5C 326.404,619.898 330.238,623.065 333.5,627C 342.48,633.247 352.48,636.08 363.5,635.5C 369.221,635.526 374.888,635.026 380.5,634C 391.159,630.447 401.492,626.114 411.5,621C 415.732,619.388 420.066,618.221 424.5,617.5C 436.563,617.312 448.563,617.979 460.5,619.5C 471.022,623.091 481.355,627.257 491.5,632C 505.833,636.667 520.167,636.667 534.5,632C 546.054,627.057 557.721,622.39 569.5,618C 585.101,615.388 600.434,616.388 615.5,621C 624.601,625.551 633.935,629.551 643.5,633C 658.023,636.613 672.356,635.947 686.5,631C 692.384,626.274 698.384,621.774 704.5,617.5C 714.676,621.172 716.842,627.505 711,636.5C 697.331,649.91 680.831,656.576 661.5,656.5C 656.453,656.442 651.453,655.942 646.5,655C 633.573,650.582 620.906,645.582 608.5,640C 605.568,639.047 602.568,638.547 599.5,638.5 Z"/></g>
<g><path style="opacity:1" fill="#c2cbdb" d="M 599.5,638.5 C 590.472,638.32 581.472,638.653 572.5,639.5C 577.401,637.948 582.568,637.281 588,637.5C 592.015,637.501 595.849,637.835 599.5,638.5 Z"/></g>
<g><path style="opacity:1" fill="#adb8ce" d="M 455.5,639.5 C 458.486,639.903 461.152,640.903 463.5,642.5C 460.364,642.397 457.698,641.397 455.5,639.5 Z"/></g>
<g><path style="opacity:1" fill="#203f7c" d="M 526.5,672.5 C 531.703,671.991 536.37,670.324 540.5,667.5C 563.961,652.478 588.961,649.311 615.5,658C 626.327,663.742 637.66,668.408 649.5,672C 669.517,676.751 686.517,671.751 700.5,657C 710.478,654.977 714.645,659.143 713,669.5C 709.132,677.7 702.965,683.533 694.5,687C 679.72,693.533 664.386,695.533 648.5,693C 633.155,688.109 618.155,682.443 603.5,676C 591.743,673.709 580.076,674.042 568.5,677C 557.167,681.667 545.833,686.333 534.5,691C 524.303,693.567 513.97,694.567 503.5,694C 489.342,691.13 476.008,686.13 463.5,679C 458.666,677.133 453.666,675.966 448.5,675.5C 442.013,674.346 435.346,674.179 428.5,675C 427.263,675.232 426.263,675.732 425.5,676.5C 413.336,679.167 401.669,683.333 390.5,689C 365.466,698.719 342.133,695.719 320.5,680C 314.522,675.214 312.022,669.048 313,661.5C 319.798,653.188 325.965,653.688 331.5,663C 346.975,673.936 363.975,676.602 382.5,671C 393.833,666 405.167,661 416.5,656C 432.234,652.484 447.9,652.817 463.5,657C 475.772,663.272 488.438,668.605 501.5,673C 509.849,673.573 518.182,673.407 526.5,672.5 Z"/></g>
<g><path style="opacity:1" fill="#a3b0c9" d="M 526.5,655.5 C 526.082,656.222 525.416,656.722 524.5,657C 516.988,657.822 509.655,657.655 502.5,656.5C 510.534,656.698 518.534,656.365 526.5,655.5 Z"/></g>
<g><path style="opacity:1" fill="#566d9b" d="M 540.5,667.5 C 536.37,670.324 531.703,671.991 526.5,672.5C 530.94,670.462 535.607,668.796 540.5,667.5 Z"/></g>
<g><path style="opacity:1" fill="#c2cbdb" d="M 448.5,675.5 C 440.799,675.309 433.132,675.642 425.5,676.5C 426.263,675.732 427.263,675.232 428.5,675C 435.346,674.179 442.013,674.346 448.5,675.5 Z"/></g>
</svg>
