<?xml version="1.0" encoding="UTF-8"?>
<!DOCTYPE svg PUBLIC "-//W3C//DTD SVG 1.1//EN" "http://www.w3.org/Graphics/SVG/1.1/DTD/svg11.dtd">
<svg xmlns="http://www.w3.org/2000/svg" version="1.1" width="192px" height="192px" style="shape-rendering:geometricPrecision; text-rendering:geometricPrecision; image-rendering:optimizeQuality; fill-rule:evenodd; clip-rule:evenodd" xmlns:xlink="http://www.w3.org/1999/xlink">
<g><path style="opacity:0.999" fill="#222288" d="M 11.5,-0.5 C 67.5,-0.5 123.5,-0.5 179.5,-0.5C 184.5,2.5 188.5,6.5 191.5,11.5C 191.5,67.5 191.5,123.5 191.5,179.5C 188.5,184.5 184.5,188.5 179.5,191.5C 123.5,191.5 67.5,191.5 11.5,191.5C 6.5,188.5 2.5,184.5 -0.5,179.5C -0.5,123.5 -0.5,67.5 -0.5,11.5C 2.5,6.5 6.5,2.5 11.5,-0.5 Z"/></g>
<g><path style="opacity:1" fill="#e4e3f0" d="M 162.5,75.5 C 164.818,75.8184 166.152,77.1517 166.5,79.5C 165.875,82.9865 164.042,83.9865 161,82.5C 160.167,79.829 160.667,77.4957 162.5,75.5 Z"/></g>
<g><path style="opacity:1" fill="#eaeaf4" d="M 141.5,77.5 C 144.243,77.0772 145.576,78.2439 145.5,81C 144.435,83.9094 143.601,86.7427 143,89.5C 146,86.8333 149,86.8333 152,89.5C 151.923,93.2292 152.09,96.8959 152.5,100.5C 153.814,99.6872 154.981,98.6872 156,97.5C 156.154,93.9021 157.154,90.5687 159,87.5C 160,86.1667 161,86.1667 162,87.5C 162.415,91.848 162.249,96.1813 161.5,100.5C 162.822,100.67 163.989,100.337 165,99.5C 166.227,94.7182 168.227,90.3849 171,86.5C 172.221,87.2718 173.221,88.2718 174,89.5C 177.262,86.9232 180.595,86.9232 184,89.5C 185.466,94.7348 183.966,98.9015 179.5,102C 180.5,102.667 181.5,102.667 182.5,102C 184.676,100.323 186.676,98.4893 188.5,96.5C 189.346,100.549 187.679,103.382 183.5,105C 180.167,105.667 176.833,105.667 173.5,105C 172.663,103.989 172.33,102.822 172.5,101.5C 174.39,101.703 175.89,101.037 177,99.5C 178.252,96.9865 178.752,94.3198 178.5,91.5C 175.737,91.7438 173.571,93.0771 172,95.5C 170.105,101.34 169.105,107.34 169,113.5C 167.451,116.003 165.784,116.003 164,113.5C 163.544,110.428 163.544,107.428 164,104.5C 160.684,106.069 157.851,105.402 155.5,102.5C 153.036,105.159 150.203,105.826 147,104.5C 146.466,100.141 146.632,95.8076 147.5,91.5C 145.097,91.393 143.264,92.393 142,94.5C 141.667,97.5 141.333,100.5 141,103.5C 139.556,105.155 137.722,105.822 135.5,105.5C 134.415,95.4419 136.415,86.1085 141.5,77.5 Z"/></g>
<g><path style="opacity:1" fill="#ededf5" d="M 75.5,82.5 C 76.5,82.5 77.5,82.5 78.5,82.5C 78.5,84.1667 78.5,85.8333 78.5,87.5C 79.5,87.5 80.5,87.5 81.5,87.5C 81.5,88.5 81.5,89.5 81.5,90.5C 79.8333,90.5 78.1667,90.5 76.5,90.5C 76.5,93.8333 76.5,97.1667 76.5,100.5C 81.2411,100.591 83.4077,98.2581 83,93.5C 86.6535,87.3689 91.4868,86.0356 97.5,89.5C 90.9444,89.8829 87.7777,93.2162 88,99.5C 89.8083,101.396 91.975,101.896 94.5,101C 91.7928,99.1363 90.9595,96.6363 92,93.5C 94.4177,91.3199 97.0844,90.9865 100,92.5C 101.036,100.249 102.536,100.249 104.5,92.5C 103.844,90.5466 103.511,88.5466 103.5,86.5C 107.241,85.5985 109.241,86.9319 109.5,90.5C 111.677,90.4139 113.677,89.7472 115.5,88.5C 116.696,89.5594 117.363,90.8927 117.5,92.5C 115.898,95.3378 115.398,98.3378 116,101.5C 117.51,99.7923 119.01,98.1256 120.5,96.5C 122.053,98.9301 124.053,100.93 126.5,102.5C 126.833,102.167 127.167,101.833 127.5,101.5C 126.185,99.6841 124.685,98.0175 123,96.5C 120.979,89.1856 123.813,86.3523 131.5,88C 134.265,90.9663 133.932,93.633 130.5,96C 134.404,102.466 132.571,105.633 125,105.5C 122.648,105.695 120.648,105.028 119,103.5C 114.294,106.892 111.461,105.725 110.5,100C 110.741,98.0164 111.408,96.1831 112.5,94.5C 111.311,93.5713 109.978,93.238 108.5,93.5C 108.5,97.5 108.5,101.5 108.5,105.5C 106.833,105.5 105.167,105.5 103.5,105.5C 103.657,104.127 103.49,102.793 103,101.5C 98.4653,102.413 94.132,103.747 90,105.5C 86.9109,105.886 84.4109,104.886 82.5,102.5C 80.2777,103.778 77.9443,104.778 75.5,105.5C 73.3717,104.946 71.8717,103.613 71,101.5C 68.6894,104.191 65.856,105.357 62.5,105C 61.8591,100.548 61.1924,96.048 60.5,91.5C 58.2822,92.9242 56.7822,94.9242 56,97.5C 56.1307,100.095 55.964,102.595 55.5,105C 52.7825,106.033 50.9492,105.2 50,102.5C 44.7296,106.398 39.5629,106.398 34.5,102.5C 32.1492,105.402 29.3158,106.069 26,104.5C 25.4213,100.797 25.588,97.1306 26.5,93.5C 24.6096,93.2965 23.1096,93.9632 22,95.5C 21.6667,98.5 21.3333,101.5 21,104.5C 19.6439,105.38 18.1439,105.714 16.5,105.5C 16.8266,100.786 16.4933,96.1196 15.5,91.5C 11.5788,94.4946 10.5788,98.3279 12.5,103C 11.0558,105.034 9.05583,105.868 6.5,105.5C 6.33418,100.821 6.50085,96.1548 7,91.5C 8.16667,89.8333 9.33333,88.1667 10.5,86.5C 11.548,87.3829 12.7147,88.0496 14,88.5C 17.5149,86.7002 20.3482,87.3668 22.5,90.5C 25.4508,88.0321 28.2842,88.0321 31,90.5C 31.0252,93.9167 31.1918,97.2501 31.5,100.5C 32.4776,100.023 33.3109,99.3567 34,98.5C 35.4058,90.7387 39.9058,87.2387 47.5,88C 49.2876,93.2507 47.2876,96.2507 41.5,97C 39.9372,99.4763 40.6038,100.976 43.5,101.5C 49.9151,100.586 52.7485,96.9196 52,90.5C 53.3236,86.4031 55.4903,85.7364 58.5,88.5C 67.3084,86.6911 69.9751,90.1911 66.5,99C 66.8499,100.257 67.5165,100.591 68.5,100C 70.5938,98.745 71.5938,96.9116 71.5,94.5C 71.0029,92.1817 70.6695,89.8484 70.5,87.5C 71.5,87.5 72.5,87.5 73.5,87.5C 73.3915,85.4862 74.0582,83.8195 75.5,82.5 Z"/></g>
<g><path style="opacity:1" fill="#4b489c" d="M 126.5,90.5 C 127.5,90.5 128.5,90.5 129.5,90.5C 128.754,94.31 127.754,94.31 126.5,90.5 Z"/></g>
<g><path style="opacity:1" fill="#3b3894" d="M 41.5,91.5 C 44.0118,92.2162 44.0118,93.2162 41.5,94.5C 40.4376,93.5754 40.4376,92.5754 41.5,91.5 Z"/></g>
</svg>
